<mxfile host="app.diagrams.net" agent="Mozilla/5.0 (Windows NT 10.0; Win64; x64) AppleWebKit/537.36 (KHTML, like Gecko) Chrome/140.0.0.0 Safari/537.36" version="28.2.5">
  <diagram name="Página-1" id="28CaLF1wAXfXzaJYzCEM">
    <mxGraphModel dx="2066" dy="1103" grid="1" gridSize="10" guides="1" tooltips="1" connect="1" arrows="1" fold="1" page="1" pageScale="1" pageWidth="827" pageHeight="1169" math="0" shadow="0">
      <root>
        <mxCell id="0" />
        <mxCell id="1" parent="0" />
        <mxCell id="ZBvs9B_GJiO_YbUT6s9J-20" style="edgeStyle=orthogonalEdgeStyle;rounded=0;orthogonalLoop=1;jettySize=auto;html=1;entryX=0.5;entryY=0;entryDx=0;entryDy=0;" edge="1" parent="1" source="ZBvs9B_GJiO_YbUT6s9J-1" target="ZBvs9B_GJiO_YbUT6s9J-2">
          <mxGeometry relative="1" as="geometry" />
        </mxCell>
        <mxCell id="ZBvs9B_GJiO_YbUT6s9J-1" value="Inicio" style="rounded=1;whiteSpace=wrap;html=1;" vertex="1" parent="1">
          <mxGeometry x="354" y="70" width="120" height="60" as="geometry" />
        </mxCell>
        <mxCell id="ZBvs9B_GJiO_YbUT6s9J-7" style="edgeStyle=orthogonalEdgeStyle;rounded=0;orthogonalLoop=1;jettySize=auto;html=1;entryX=0.5;entryY=0;entryDx=0;entryDy=0;" edge="1" parent="1" source="ZBvs9B_GJiO_YbUT6s9J-2" target="ZBvs9B_GJiO_YbUT6s9J-4">
          <mxGeometry relative="1" as="geometry" />
        </mxCell>
        <mxCell id="ZBvs9B_GJiO_YbUT6s9J-8" value="Si" style="edgeLabel;html=1;align=center;verticalAlign=middle;resizable=0;points=[];" vertex="1" connectable="0" parent="ZBvs9B_GJiO_YbUT6s9J-7">
          <mxGeometry x="-0.1287" y="4" relative="1" as="geometry">
            <mxPoint as="offset" />
          </mxGeometry>
        </mxCell>
        <mxCell id="ZBvs9B_GJiO_YbUT6s9J-17" style="edgeStyle=orthogonalEdgeStyle;rounded=0;orthogonalLoop=1;jettySize=auto;html=1;entryX=0.5;entryY=0;entryDx=0;entryDy=0;" edge="1" parent="1" source="ZBvs9B_GJiO_YbUT6s9J-2" target="ZBvs9B_GJiO_YbUT6s9J-10">
          <mxGeometry relative="1" as="geometry">
            <mxPoint x="660" y="210" as="targetPoint" />
          </mxGeometry>
        </mxCell>
        <mxCell id="ZBvs9B_GJiO_YbUT6s9J-18" value="No" style="edgeLabel;html=1;align=center;verticalAlign=middle;resizable=0;points=[];" vertex="1" connectable="0" parent="ZBvs9B_GJiO_YbUT6s9J-17">
          <mxGeometry x="-0.437" y="-1" relative="1" as="geometry">
            <mxPoint as="offset" />
          </mxGeometry>
        </mxCell>
        <mxCell id="ZBvs9B_GJiO_YbUT6s9J-2" value="Hay puerta trasera?" style="rhombus;whiteSpace=wrap;html=1;" vertex="1" parent="1">
          <mxGeometry x="360" y="160" width="107" height="100" as="geometry" />
        </mxCell>
        <mxCell id="ZBvs9B_GJiO_YbUT6s9J-6" style="edgeStyle=orthogonalEdgeStyle;rounded=0;orthogonalLoop=1;jettySize=auto;html=1;entryX=0.5;entryY=0;entryDx=0;entryDy=0;" edge="1" parent="1" source="ZBvs9B_GJiO_YbUT6s9J-4" target="ZBvs9B_GJiO_YbUT6s9J-5">
          <mxGeometry relative="1" as="geometry" />
        </mxCell>
        <mxCell id="ZBvs9B_GJiO_YbUT6s9J-9" value="´No" style="edgeLabel;html=1;align=center;verticalAlign=middle;resizable=0;points=[];" vertex="1" connectable="0" parent="ZBvs9B_GJiO_YbUT6s9J-6">
          <mxGeometry x="-0.3" y="-2" relative="1" as="geometry">
            <mxPoint as="offset" />
          </mxGeometry>
        </mxCell>
        <mxCell id="ZBvs9B_GJiO_YbUT6s9J-15" style="edgeStyle=orthogonalEdgeStyle;rounded=0;orthogonalLoop=1;jettySize=auto;html=1;entryX=0;entryY=0.5;entryDx=0;entryDy=0;" edge="1" parent="1" source="ZBvs9B_GJiO_YbUT6s9J-4" target="ZBvs9B_GJiO_YbUT6s9J-10">
          <mxGeometry relative="1" as="geometry" />
        </mxCell>
        <mxCell id="ZBvs9B_GJiO_YbUT6s9J-16" value="Sï" style="edgeLabel;html=1;align=center;verticalAlign=middle;resizable=0;points=[];" vertex="1" connectable="0" parent="ZBvs9B_GJiO_YbUT6s9J-15">
          <mxGeometry x="-0.0112" y="2" relative="1" as="geometry">
            <mxPoint as="offset" />
          </mxGeometry>
        </mxCell>
        <mxCell id="ZBvs9B_GJiO_YbUT6s9J-4" value="Está llena de zombies?" style="rhombus;whiteSpace=wrap;html=1;" vertex="1" parent="1">
          <mxGeometry x="356" y="310" width="116" height="110" as="geometry" />
        </mxCell>
        <mxCell id="ZBvs9B_GJiO_YbUT6s9J-5" value="Salgo y me salvo" style="rounded=1;whiteSpace=wrap;html=1;" vertex="1" parent="1">
          <mxGeometry x="354" y="480" width="120" height="60" as="geometry" />
        </mxCell>
        <mxCell id="ZBvs9B_GJiO_YbUT6s9J-13" style="edgeStyle=orthogonalEdgeStyle;rounded=0;orthogonalLoop=1;jettySize=auto;html=1;entryX=0.5;entryY=0;entryDx=0;entryDy=0;" edge="1" parent="1" source="ZBvs9B_GJiO_YbUT6s9J-10" target="ZBvs9B_GJiO_YbUT6s9J-11">
          <mxGeometry relative="1" as="geometry" />
        </mxCell>
        <mxCell id="ZBvs9B_GJiO_YbUT6s9J-14" value="Sí" style="edgeLabel;html=1;align=center;verticalAlign=middle;resizable=0;points=[];" vertex="1" connectable="0" parent="ZBvs9B_GJiO_YbUT6s9J-13">
          <mxGeometry x="-0.2" y="-1" relative="1" as="geometry">
            <mxPoint as="offset" />
          </mxGeometry>
        </mxCell>
        <mxCell id="ZBvs9B_GJiO_YbUT6s9J-22" style="edgeStyle=orthogonalEdgeStyle;rounded=0;orthogonalLoop=1;jettySize=auto;html=1;entryX=0;entryY=0.5;entryDx=0;entryDy=0;" edge="1" parent="1" source="ZBvs9B_GJiO_YbUT6s9J-10" target="ZBvs9B_GJiO_YbUT6s9J-21">
          <mxGeometry relative="1" as="geometry" />
        </mxCell>
        <mxCell id="ZBvs9B_GJiO_YbUT6s9J-23" value="No" style="edgeLabel;html=1;align=center;verticalAlign=middle;resizable=0;points=[];" vertex="1" connectable="0" parent="ZBvs9B_GJiO_YbUT6s9J-22">
          <mxGeometry x="-0.1351" y="-3" relative="1" as="geometry">
            <mxPoint as="offset" />
          </mxGeometry>
        </mxCell>
        <mxCell id="ZBvs9B_GJiO_YbUT6s9J-10" value="Tienes armas?" style="rhombus;whiteSpace=wrap;html=1;" vertex="1" parent="1">
          <mxGeometry x="650" y="310" width="116" height="110" as="geometry" />
        </mxCell>
        <mxCell id="ZBvs9B_GJiO_YbUT6s9J-12" style="edgeStyle=orthogonalEdgeStyle;rounded=0;orthogonalLoop=1;jettySize=auto;html=1;entryX=1;entryY=0.5;entryDx=0;entryDy=0;" edge="1" parent="1" source="ZBvs9B_GJiO_YbUT6s9J-11" target="ZBvs9B_GJiO_YbUT6s9J-5">
          <mxGeometry relative="1" as="geometry" />
        </mxCell>
        <mxCell id="ZBvs9B_GJiO_YbUT6s9J-11" value="Me enfrento a la horda" style="rounded=0;whiteSpace=wrap;html=1;" vertex="1" parent="1">
          <mxGeometry x="648" y="480" width="120" height="60" as="geometry" />
        </mxCell>
        <mxCell id="ZBvs9B_GJiO_YbUT6s9J-21" value="Mueres" style="rounded=1;whiteSpace=wrap;html=1;" vertex="1" parent="1">
          <mxGeometry x="840" y="335" width="120" height="60" as="geometry" />
        </mxCell>
      </root>
    </mxGraphModel>
  </diagram>
</mxfile>
